<?xml version="1.0" standalone="no"?>
<!DOCTYPE svg PUBLIC "-//W3C//DTD SVG 20010904//EN"
 "http://www.w3.org/TR/2001/REC-SVG-20010904/DTD/svg10.dtd">
<svg version="1.0" xmlns="http://www.w3.org/2000/svg"
 width="400.000000pt" height="400.000000pt" viewBox="0 0 400.000000 400.000000"
 preserveAspectRatio="xMidYMid meet">
<metadata>
Created by potrace 1.14, written by Peter Selinger 2001-2017
</metadata>
<g transform="translate(0.000000,400.000000) scale(0.100000,-0.100000)"
fill="#000000" stroke="none">
<path d="M1810 3997 c-3 -3 -25 -8 -50 -12 -44 -6 -74 -11 -135 -21 -16 -3
-48 -10 -70 -16 -22 -5 -51 -12 -65 -15 -30 -5 -193 -60 -235 -78 -16 -8 -33
-14 -37 -15 -17 -2 -173 -83 -179 -92 -3 -5 -9 -9 -13 -9 -20 3 -26 0 -21 -9
4 -6 3 -9 -2 -8 -12 4 -83 -35 -83 -45 0 -4 -4 -5 -10 -2 -5 3 -10 2 -10 -2 0
-5 -16 -17 -35 -27 -19 -11 -32 -24 -28 -30 3 -6 3 -8 -2 -4 -8 8 -39 -12 -92
-59 -18 -15 -56 -48 -85 -73 -80 -69 -194 -192 -236 -255 -15 -22 -32 -44 -37
-50 -11 -11 -62 -87 -112 -170 -25 -40 -113 -214 -119 -235 -1 -3 -5 -15 -9
-27 -4 -12 -6 -25 -5 -29 1 -4 -3 -10 -8 -13 -19 -12 -91 -278 -106 -391 -3
-19 -8 -53 -13 -75 -12 -61 -10 -421 4 -495 7 -36 15 -84 18 -108 3 -23 15
-75 26 -115 11 -39 21 -80 24 -90 10 -44 59 -172 67 -175 4 -2 5 -8 2 -13 -3
-6 2 -19 12 -30 9 -10 14 -19 9 -19 -4 0 -2 -7 5 -15 7 -8 9 -15 4 -15 -5 0
-4 -4 1 -8 6 -4 30 -46 55 -94 25 -49 49 -88 53 -88 5 0 6 -4 3 -8 -3 -5 4
-18 14 -30 11 -12 20 -25 20 -30 0 -5 11 -21 25 -36 13 -14 24 -27 22 -29 -2
-2 47 -69 83 -111 103 -122 204 -221 285 -281 22 -16 49 -37 59 -47 10 -9 24
-14 30 -11 6 3 8 3 4 -2 -8 -8 53 -55 71 -55 6 0 11 -4 11 -8 0 -5 12 -15 28
-23 15 -8 29 -17 32 -20 11 -13 279 -138 340 -159 133 -45 367 -103 398 -99 4
1 9 1 12 0 44 -17 425 -23 510 -8 25 4 56 10 70 12 14 2 41 7 60 10 19 3 53
11 75 16 22 6 47 13 56 14 53 10 199 60 199 67 0 5 4 7 8 4 5 -3 21 1 35 9 15
8 30 14 33 14 10 -1 64 26 64 31 0 3 10 7 22 7 13 1 24 7 26 13 2 5 10 10 18
10 8 0 14 5 14 12 0 6 3 8 6 5 8 -8 84 33 84 45 0 4 4 7 8 5 12 -3 162 95 162
106 0 6 3 8 6 4 4 -3 12 -1 19 6 7 7 32 28 56 47 24 19 50 42 59 50 9 8 30 27
49 43 18 15 31 27 28 27 -2 0 26 31 62 68 101 103 216 254 204 266 -4 3 -2 6
4 6 15 0 151 240 136 240 -4 0 -3 4 3 8 22 14 141 338 129 350 -2 3 -1 10 4
16 5 6 12 29 15 50 4 21 9 48 11 60 3 12 7 37 9 56 3 19 8 53 13 75 12 61 10
421 -4 495 -6 36 -14 81 -17 100 -3 19 -9 49 -12 65 -4 17 -7 36 -7 43 0 6 -4
12 -9 12 -5 0 -7 4 -3 10 3 5 -1 25 -9 45 -8 19 -13 35 -11 35 15 0 -118 319
-139 332 -6 4 -7 8 -3 8 11 0 -55 120 -66 120 -4 0 -5 5 -2 10 3 6 1 10 -4 10
-6 0 -11 7 -11 15 0 7 -7 18 -16 23 -9 5 -15 12 -14 16 2 10 -72 116 -82 116
-4 0 -8 6 -8 13 0 7 -9 19 -20 27 -11 8 -20 19 -20 25 0 5 -18 27 -40 48 -22
20 -40 39 -40 41 0 3 -28 31 -62 63 -34 32 -70 66 -80 76 -10 9 -22 17 -26 17
-4 0 -14 9 -22 20 -8 11 -20 20 -27 20 -7 0 -13 4 -13 8 0 10 -112 89 -118 84
-3 -2 -9 3 -14 12 -5 9 -16 16 -23 16 -8 0 -15 5 -15 10 0 6 -6 10 -14 10 -8
0 -16 3 -18 8 -3 7 -217 119 -228 120 -3 0 -22 7 -43 16 -120 50 -319 105
-442 122 -27 3 -59 9 -70 12 -26 7 -419 15 -425 9z"/>
</g>
</svg>
