<?xml version="1.0" standalone="no"?>
<!DOCTYPE svg PUBLIC "-//W3C//DTD SVG 20010904//EN"
 "http://www.w3.org/TR/2001/REC-SVG-20010904/DTD/svg10.dtd">
<svg version="1.0" xmlns="http://www.w3.org/2000/svg"
 width="804.000000pt" height="804.000000pt" viewBox="0 0 804.000000 804.000000"
 preserveAspectRatio="xMidYMid meet">
<metadata>
Created by potrace 1.14, written by Peter Selinger 2001-2017
</metadata>
<g transform="translate(0.000000,804.000000) scale(0.100000,-0.100000)"
fill="#000000" stroke="none">
<path d="M3795 7924 c-486 -37 -891 -132 -1300 -306 -1225 -521 -2110 -1641
-2329 -2948 -42 -249 -50 -361 -50 -660 0 -305 12 -448 60 -710 244 -1328
1174 -2458 2428 -2949 448 -175 853 -256 1341 -268 665 -15 1242 111 1830 402
414 205 706 415 1036 744 329 330 539 622 744 1036 230 465 352 909 396 1440
25 297 -2 746 -61 1045 -257 1288 -1119 2349 -2331 2869 -329 141 -707 240
-1089 286 -128 15 -563 28 -675 19z m2672 -2261 l-67 -68 -515 515 -515 515
67 67 68 68 515 -515 515 -515 -68 -67z m-1040 189 l-267 -267 103 -103 102
-102 270 270 270 270 62 -62 c35 -34 63 -67 63 -72 0 -6 -120 -128 -267 -272
l-268 -262 163 -164 162 -163 -64 -64 -65 -64 -48 41 c-26 22 -280 273 -563
556 l-515 516 68 67 67 68 164 -164 164 -164 269 266 268 266 65 -65 65 -64
-268 -268z m-412 -632 l410 -410 -1265 -1259 -1265 -1259 -65 64 -65 63 -159
-150 -158 -151 -37 34 c-20 18 -70 66 -112 106 l-75 73 -290 -285 -291 -285
-61 62 -62 62 287 288 288 288 -112 109 c-62 60 -113 113 -113 117 0 4 70 73
154 153 l155 145 -60 60 -60 60 1268 1262 c697 694 1270 1262 1273 1263 3 0
190 -185 415 -410z"/>
<path d="M3462 4237 l-1133 -1133 281 -273 280 -273 338 330 c185 182 449 443
587 581 l250 251 -175 175 -174 174 24 26 24 26 171 -171 c93 -93 175 -170
180 -170 13 0 195 182 195 195 0 5 -35 44 -77 87 -76 76 -77 78 -58 98 10 11
23 20 29 20 6 0 46 -35 88 -77 l78 -78 122 123 123 122 -93 93 -92 92 27 28
28 27 92 -92 93 -93 112 113 113 112 -155 155 -155 155 33 32 32 33 155 -155
155 -155 100 100 100 100 -277 277 c-153 153 -280 278 -283 278 -3 0 -515
-510 -1138 -1133z m348 -531 l24 -27 -482 -482 -482 -482 -184 184 -184 184
475 483 476 483 166 -158 c91 -88 177 -171 191 -185z"/>
</g>
</svg>
